<svg xmlns="http://www.w3.org/2000/svg" width="32" height="33" viewBox="0 0 1114 1144" version="1.1"><path d="" stroke="none" fill="#382cb4" fill-rule="evenodd"/><path d="M 336.049 189.282 C 379.034 223.095, 806.353 566.790, 807.067 568.125 C 807.641 569.198, 807.841 570.926, 807.511 571.965 C 807.181 573.004, 699.964 659.724, 569.249 764.677 L 331.587 955.500 446.544 955.810 C 525.165 956.022, 566.399 955.763, 577 954.990 C 801.851 938.590, 934.790 784.572, 925.916 550.750 C 917.928 340.247, 788.119 205.271, 578.050 189.039 C 557.589 187.458, 334.015 187.682, 336.049 189.282 M 187 570.500 C 187 721.475, 187.338 844.996, 187.750 844.990 C 188.162 844.985, 264.325 784.092, 357 709.673 L 525.500 574.365 525.500 570.462 L 525.500 566.560 357 431.342 C 264.325 356.972, 188.162 296.096, 187.750 296.062 C 187.338 296.028, 187 419.525, 187 570.500" stroke="none" fill="#342cb4" fill-rule="evenodd"/></svg>