<svg xmlns="http://www.w3.org/2000/svg" width="93.5" height="32" viewBox="0 0 3344 1144" version="1.1"><path d="M 383 336.316 C 383 336.563, 448.250 389.079, 528 453.017 C 700.551 591.358, 700.762 550.439, 526.778 690.113 L 380.555 807.500 387.028 807.814 C 604.884 818.388, 700.041 776.156, 735.384 653.211 C 780.629 495.817, 699.794 359.756, 548.335 338.372 C 537.138 336.791, 383 334.874, 383 336.316 M 1813 385.509 C 1694.423 401.391, 1626.865 502.480, 1651.610 627 C 1691.371 827.081, 1999.502 826.960, 2039.412 626.847 C 2069.087 478.052, 1963.372 365.368, 1813 385.509 M 913 579.549 L 913 770.099 1012.250 769.731 C 1118.481 769.338, 1116.357 769.431, 1140.769 764.103 C 1302.530 728.799, 1332.265 484.327, 1183.801 410.313 C 1145.244 391.091, 1127.514 389.010, 1002.250 389.004 L 913 389 913 579.549 M 1300 579.448 L 1300 770 1331 770 L 1362 770 1362 696.431 L 1362 622.862 1409.750 623.257 C 1492.600 623.942, 1487.423 620.384, 1541.519 713.834 L 1573.743 769.500 1609.371 769.763 C 1628.967 769.907, 1645 769.792, 1645 769.507 C 1645 768.421, 1577.491 652.157, 1572.995 645.500 C 1561.497 628.476, 1542.634 614.086, 1528.291 611.395 C 1521.301 610.083, 1524.120 607.360, 1533.250 606.606 C 1654.976 596.543, 1679.831 441.841, 1566.418 400.164 C 1538.203 389.795, 1536.805 389.698, 1410.250 389.269 L 1300 388.895 1300 579.448 M 2066 579.500 L 2066 770 2097 770 L 2128 770 2128 712.542 L 2128 655.083 2203.250 654.771 C 2293.583 654.397, 2299.543 653.615, 2329.415 638.221 C 2418.413 592.359, 2417.203 450.046, 2327.434 405.188 C 2297.426 390.193, 2285.410 389.020, 2161.750 389.009 L 2066 389 2066 579.500 M 2408 579.500 L 2408 770 2556 770 L 2704 770 2704 742 L 2704 714 2587 714 L 2470 714 2470 551.500 L 2470 389 2439 389 L 2408 389 2408 579.500 M 2654 389.584 C 2654 389.905, 2691.575 446.264, 2737.500 514.826 L 2821 639.484 2821 704.742 L 2821 770 2851.500 770 L 2882 770 2882 705.082 L 2882 640.164 2966.500 515.136 C 3012.975 446.370, 3051 389.853, 3051 389.542 C 3051 389.231, 3033.824 389.094, 3012.830 389.238 L 2974.660 389.500 2932.777 453 C 2909.741 487.925, 2882.869 528.875, 2873.061 544 C 2858.678 566.180, 2854.771 571.547, 2852.864 571.744 C 2850.763 571.960, 2843.765 561.803, 2790 480.501 L 2729.500 389.015 2691.750 389.007 C 2670.988 389.003, 2654 389.263, 2654 389.584 M 293 571.532 L 293 740.065 361.250 685.285 C 528.602 550.964, 522.261 586.101, 397.243 485.823 C 340.452 440.270, 293.764 403, 293.493 403 C 293.222 403, 293 478.840, 293 571.532 M 1821 444.052 C 1747.969 452.025, 1714.907 491.910, 1713.284 574 C 1711.258 676.426, 1760.194 722.930, 1861.746 715.083 C 1940.823 708.972, 1975.868 670.091, 1977.732 586.401 C 1980.078 481.062, 1926.631 432.519, 1821 444.052 M 974 579.572 L 974 714.145 1043.250 713.717 C 1134.322 713.153, 1148.280 710.617, 1174.870 689.800 C 1227.259 648.787, 1226.431 508.957, 1173.560 468.521 C 1147.101 448.285, 1127.448 445, 1032.855 445 L 974 445 974 579.572 M 1362 509.939 L 1362 575 1429.855 575 C 1516.343 575, 1527.481 574.115, 1544.796 565.864 C 1583.824 547.266, 1583.299 473.570, 1544 454.138 C 1526.889 445.677, 1527.182 445.702, 1439.250 445.263 L 1362 444.878 1362 509.939 M 2128 522.428 L 2128 600 2186.250 599.991 C 2280.515 599.977, 2294.757 597.600, 2313.371 578.773 C 2342.412 549.398, 2338.668 482.376, 2306.733 459.948 C 2287.966 446.769, 2280.799 445.810, 2197.250 445.288 L 2128 444.855 2128 522.428" stroke="none" fill="#fffcfc" fill-rule="evenodd"/><path d="" stroke="none" fill="#fcfcfc" fill-rule="evenodd"/></svg>